<?xml version="1.0" encoding="UTF-8" standalone="no"?>
<!-- Created with Inkscape (http://www.inkscape.org/) -->

<svg
   xmlns:dc="http://purl.org/dc/elements/1.1/"
   xmlns:cc="http://creativecommons.org/ns#"
   xmlns:rdf="http://www.w3.org/1999/02/22-rdf-syntax-ns#"
   xmlns:svg="http://www.w3.org/2000/svg"
   xmlns="http://www.w3.org/2000/svg"
   xmlns:sodipodi="http://sodipodi.sourceforge.net/DTD/sodipodi-0.dtd"
   xmlns:inkscape="http://www.inkscape.org/namespaces/inkscape"
   version="1.1"
   id="svg4810"
   xml:space="preserve"
   width="529.1333"
   height="196.536"
   viewBox="0 0 529.1333 196.536"
   sodipodi:docname="logo_helioparc.svg"
   inkscape:version="0.92.4 (unknown)"><metadata
     id="metadata4816"><rdf:RDF><cc:Work
         rdf:about=""><dc:format>image/svg+xml</dc:format><dc:type
           rdf:resource="http://purl.org/dc/dcmitype/StillImage" /><dc:title></dc:title></cc:Work></rdf:RDF></metadata><defs
     id="defs4814"><clipPath
       clipPathUnits="userSpaceOnUse"
       id="clipPath4840"><path
         d="M 0,147.402 H 396.85 V 0 H 0 Z"
         id="path4838"
         inkscape:connector-curvature="0" /></clipPath></defs><sodipodi:namedview
     pagecolor="#ffffff"
     bordercolor="#666666"
     borderopacity="1"
     objecttolerance="10"
     gridtolerance="10"
     guidetolerance="10"
     inkscape:pageopacity="0"
     inkscape:pageshadow="2"
     inkscape:window-width="1853"
     inkscape:window-height="1025"
     id="namedview4812"
     showgrid="false"
     inkscape:zoom="0.83910803"
     inkscape:cx="264.56665"
     inkscape:cy="98.267998"
     inkscape:window-x="67"
     inkscape:window-y="27"
     inkscape:window-maximized="1"
     inkscape:current-layer="g4818" /><g
     id="g4818"
     inkscape:groupmode="layer"
     inkscape:label="logo_helioparc"
     transform="matrix(1.3333333,0,0,-1.3333333,0,196.536)"><g
       id="g4820"
       transform="translate(118.8856,102.189)"><path
         d="m 0,0 h 7.498 v -10.55 h 8.458 V 0 h 7.498 v -28.336 h -7.498 v 11.247 H 7.498 V -28.336 H 0 Z"
         style="fill:#171a30;fill-opacity:1;fill-rule:nonzero;stroke:none"
         id="path4822"
         inkscape:connector-curvature="0" /></g><g
       id="g4824"
       transform="translate(157.7538,106.9845)"><path
         d="M 0,0 7.935,6.277 11.857,1.482 3.313,-3.749 Z m -5.842,-4.795 h 18.31 v -6.278 H 1.656 v -4.447 h 9.242 v -6.277 H 1.656 v -5.057 h 11.248 v -6.278 H -5.842 Z"
         style="fill:#171a30;fill-opacity:1;fill-rule:nonzero;stroke:none"
         id="path4826"
         inkscape:connector-curvature="0" /></g><g
       id="g4828"
       transform="translate(179.3632,102.189)"><path
         d="m 0,0 h 7.498 v -22.059 h 10.725 v -6.277 l -18.223,0 z"
         style="fill:#171a30;fill-opacity:1;fill-rule:nonzero;stroke:none"
         id="path4830"
         inkscape:connector-curvature="0" /></g><path
       d="m 206.325,102.189 h 7.498 V 73.853 h -7.498 z"
       style="fill:#171a30;fill-opacity:1;fill-rule:nonzero;stroke:none"
       id="path4832"
       inkscape:connector-curvature="0" /><g
       id="g4834"><g
         id="g4836"
         clip-path="url(#clipPath4840)"><g
           id="g4842"
           transform="translate(241.163,88.1514)"><path
             d="m 0,0 c 0,5.144 -2.092,8.109 -5.492,8.109 -3.401,0 -5.493,-2.965 -5.493,-8.109 0,-5.144 2.092,-8.37 5.493,-8.37 C -2.092,-8.37 0,-5.144 0,0 m -18.658,0 c 0,9.329 5.318,14.561 13.166,14.561 7.846,0 13.165,-5.275 13.165,-14.561 0,-9.329 -5.319,-14.822 -13.165,-14.822 -7.848,0 -13.166,5.493 -13.166,14.822"
             style="fill:#171a30;fill-opacity:1;fill-rule:nonzero;stroke:none"
             id="path4844"
             inkscape:connector-curvature="0" /></g><g
           id="g4846"
           transform="translate(267.7596,88.7618)"><path
             d="m 0,0 c 2.965,0 4.359,1.482 4.359,4.011 0,2.528 -1.656,3.488 -4.534,3.488 H -2.703 V 0 Z M -10.201,13.427 H 0.175 c 6.19,0 11.509,-2.267 11.509,-9.416 0,-6.932 -5.407,-9.94 -11.335,-9.94 h -3.052 v -8.98 h -7.498 z"
             style="fill:#171a30;fill-opacity:1;fill-rule:nonzero;stroke:none"
             id="path4848"
             inkscape:connector-curvature="0" /></g><path
           d="m 288.449,85.667 h 13.862 v -5.798 h -13.862 z m 2.441,16.522 h 9.068 l 8.632,-28.336 h -7.935 l -3.225,13.775 c -0.699,2.703 -1.396,6.147 -2.093,8.981 h -0.175 c -0.61,-2.877 -1.308,-6.278 -2.005,-8.981 l -3.226,-13.775 h -7.672 z"
           style="fill:#171a30;fill-opacity:1;fill-rule:nonzero;stroke:none"
           id="path4850"
           inkscape:connector-curvature="0" /><g
           id="g4852"
           transform="translate(324.705,85.3179)"><path
             d="m 0,0 5.057,4.97 9.198,-16.435 h -8.37 z m 0.828,3.967 c 2.965,0 4.534,1.308 4.534,3.749 0,2.441 -1.569,3.226 -4.534,3.226 H -1.875 V 3.967 Z M -9.373,16.871 H 1.352 c 6.102,0 11.334,-2.093 11.334,-9.155 0,-6.844 -5.232,-9.678 -11.334,-9.678 h -3.227 v -9.503 h -7.498 z"
             style="fill:#171a30;fill-opacity:1;fill-rule:nonzero;stroke:none"
             id="path4854"
             inkscape:connector-curvature="0" /></g><g
           id="g4856"
           transform="translate(345.66,87.8028)"><path
             d="m 0,0 c 0,9.503 6.539,14.909 13.688,14.909 3.749,0 6.801,-1.743 8.807,-3.749 L 18.571,6.365 c -1.394,1.22 -2.79,2.093 -4.708,2.093 -3.313,0 -6.19,-3.052 -6.19,-8.196 0,-5.319 2.441,-8.283 6.103,-8.283 2.18,0 3.923,1.133 5.144,2.441 l 3.924,-4.708 c -2.398,-2.79 -5.667,-4.185 -9.329,-4.185 C 6.277,-14.473 0,-9.678 0,0"
             style="fill:#171a30;fill-opacity:1;fill-rule:nonzero;stroke:none"
             id="path4858"
             inkscape:connector-curvature="0" /></g><g
           id="g4860"
           transform="translate(121.893,65.6641)"><path
             d="M 0,0 H -2.997 V 2.509 H 5.995 V 0 H 2.998 V -8.817 H 0 Z"
             style="fill:#171a30;fill-opacity:1;fill-rule:nonzero;stroke:none"
             id="path4862"
             inkscape:connector-curvature="0" /></g><g
           id="g4864"
           transform="translate(134.0844,68.1729)"><path
             d="M 0,0 H 7.318 V -2.509 H 2.997 v -1.777 h 3.694 v -2.51 H 2.997 v -2.021 h 4.496 v -2.509 H 0 Z"
             style="fill:#171a30;fill-opacity:1;fill-rule:nonzero;stroke:none"
             id="path4866"
             inkscape:connector-curvature="0" /></g><g
           id="g4868"
           transform="translate(147.5004,62.4229)"><path
             d="m 0,0 c 0,3.799 2.614,5.96 5.472,5.96 1.499,0 2.718,-0.697 3.52,-1.499 L 7.424,2.544 C 6.866,3.032 6.309,3.381 5.541,3.381 c -1.324,0 -2.474,-1.22 -2.474,-3.277 0,-2.125 0.976,-3.31 2.44,-3.31 0.871,0 1.568,0.453 2.055,0.976 L 9.131,-4.112 C 8.173,-5.228 6.866,-5.785 5.402,-5.785 2.51,-5.785 0,-3.868 0,0"
             style="fill:#171a30;fill-opacity:1;fill-rule:nonzero;stroke:none"
             id="path4870"
             inkscape:connector-curvature="0" /></g><g
           id="g4872"
           transform="translate(162.6351,68.1729)"><path
             d="M 0,0 H 2.997 V -4.217 H 6.378 V 0 H 9.375 V -11.326 H 6.378 V -6.83 H 2.997 v -4.496 H 0 Z"
             style="fill:#171a30;fill-opacity:1;fill-rule:nonzero;stroke:none"
             id="path4874"
             inkscape:connector-curvature="0" /></g><g
           id="g4876"
           transform="translate(178.9349,68.1729)"><path
             d="m 0,0 h 3.066 l 2.51,-5.053 1.08,-2.544 h 0.07 C 6.587,-6.377 6.343,-4.67 6.343,-3.275 V 0 H 9.2 V -11.326 H 6.134 l -2.51,5.071 -1.08,2.526 H 2.475 c 0.138,-1.29 0.382,-2.927 0.382,-4.321 v -3.276 H 0 Z"
             style="fill:#171a30;fill-opacity:1;fill-rule:nonzero;stroke:none"
             id="path4878"
             inkscape:connector-curvature="0" /></g><g
           id="g4880"
           transform="translate(202.1635,62.5626)"><path
             d="m 0,0 c 0,2.056 -0.836,3.241 -2.195,3.241 -1.36,0 -2.196,-1.185 -2.196,-3.241 0,-2.057 0.836,-3.346 2.196,-3.346 C -0.836,-3.346 0,-2.057 0,0 m -7.458,0 c 0,3.729 2.126,5.82 5.263,5.82 3.136,0 5.262,-2.109 5.262,-5.82 0,-3.729 -2.126,-5.925 -5.262,-5.925 -3.137,0 -5.263,2.196 -5.263,5.925"
             style="fill:#171a30;fill-opacity:1;fill-rule:nonzero;stroke:none"
             id="path4882"
             inkscape:connector-curvature="0" /></g><g
           id="g4884"
           transform="translate(215.8871,62.8067)"><path
             d="m 0,0 c 1.186,0 1.743,0.592 1.743,1.603 0,1.01 -0.663,1.394 -1.812,1.394 H -1.08 L -1.08,0 Z M -4.077,5.366 H 0.07 c 2.474,0 4.6,-0.905 4.6,-3.763 0,-2.771 -2.16,-3.973 -4.53,-3.973 h -1.22 v -3.59 h -2.997 z"
             style="fill:#171a30;fill-opacity:1;fill-rule:nonzero;stroke:none"
             id="path4886"
             inkscape:connector-curvature="0" /></g><g
           id="g4888"
           transform="translate(234.0394,62.5626)"><path
             d="m 0,0 c 0,2.056 -0.836,3.241 -2.195,3.241 -1.36,0 -2.196,-1.185 -2.196,-3.241 0,-2.057 0.836,-3.346 2.196,-3.346 C -0.836,-3.346 0,-2.057 0,0 m -7.458,0 c 0,3.729 2.126,5.82 5.263,5.82 3.136,0 5.262,-2.109 5.262,-5.82 0,-3.729 -2.126,-5.925 -5.262,-5.925 -3.137,0 -5.263,2.196 -5.263,5.925"
             style="fill:#171a30;fill-opacity:1;fill-rule:nonzero;stroke:none"
             id="path4890"
             inkscape:connector-curvature="0" /></g><g
           id="g4892"
           transform="translate(243.6849,68.1729)"><path
             d="m 0,0 h 2.997 v -8.817 h 4.286 v -2.509 H 0 Z"
             style="fill:#171a30;fill-opacity:1;fill-rule:nonzero;stroke:none"
             id="path4894"
             inkscape:connector-curvature="0" /></g><g
           id="g4896"
           transform="translate(257.5492,68.1729)"><path
             d="M 0,0 H 7.318 V -2.509 H 2.997 v -1.777 h 3.694 v -2.51 H 2.997 v -2.021 h 4.496 v -2.509 H 0 Z"
             style="fill:#171a30;fill-opacity:1;fill-rule:nonzero;stroke:none"
             id="path4898"
             inkscape:connector-curvature="0" /></g><g
           id="g4900"
           transform="translate(73.7011,96.378)"><path
             d="m 0,0 h 19.842 0.001 c 1.566,0 2.834,1.269 2.834,2.834 v 19.843 z"
             style="fill:#171a30;fill-opacity:1;fill-rule:nonzero;stroke:none"
             id="path4902"
             inkscape:connector-curvature="0" /></g><g
           id="g4904"
           transform="translate(51.0238,119.055)"><path
             d="m 0,0 -19.814,-19.842 c -1.78,-2.002 -2.863,-4.638 -2.863,-7.528 v -63.338 0 h 17.999 c 3.047,0 5.807,1.209 7.844,3.165 l 19.511,19.512 H 0 Z"
             style="fill:#171a30;fill-opacity:1;fill-rule:nonzero;stroke:none"
             id="path4906"
             inkscape:connector-curvature="0" /></g><g
           id="g4908"
           transform="translate(73.7011,70.9171)"><path
             d="M 0,0 V -19.893 L 22.677,2.784 H 2.784 C 1.253,2.784 0,1.531 0,0"
             style="fill:#171a30;fill-opacity:1;fill-rule:nonzero;stroke:none"
             id="path4910"
             inkscape:connector-curvature="0" /></g></g></g></g></svg>