<?xml version="1.0" encoding="UTF-8" standalone="no"?>
<svg
   version="1.0"
   width="514px"
   height="486px"
   viewBox="0 0 514 486"
   preserveAspectRatio="xMidYMid meet"
   id="svg14"
   sodipodi:docname="camera-bookmark.svg"
   inkscape:version="1.1.2 (0a00cf5339, 2022-02-04)"
   xmlns:inkscape="http://www.inkscape.org/namespaces/inkscape"
   xmlns:sodipodi="http://sodipodi.sourceforge.net/DTD/sodipodi-0.dtd"
   xmlns="http://www.w3.org/2000/svg"
   xmlns:svg="http://www.w3.org/2000/svg">
  <defs
     id="defs18" />
  <sodipodi:namedview
     id="namedview16"
     pagecolor="#505050"
     bordercolor="#eeeeee"
     borderopacity="1"
     inkscape:pageshadow="0"
     inkscape:pageopacity="0"
     inkscape:pagecheckerboard="0"
     showgrid="false"
     inkscape:zoom="1.1756014"
     inkscape:cx="202.02426"
     inkscape:cy="238.60128"
     inkscape:window-width="1920"
     inkscape:window-height="964"
     inkscape:window-x="0"
     inkscape:window-y="0"
     inkscape:window-maximized="1"
     inkscape:current-layer="g12">
    <inkscape:grid
       type="xygrid"
       id="grid160" />
  </sodipodi:namedview>
  <g
     fill="#000000"
     id="g12"
     transform="matrix(1.0257024,0,0,1.0257024,-37.052727,-7.1977612)">
    <path
       d="m 201.51433,384.71831 c -9.66032,-3.00746 -16.58659,-10.3894 -18.77383,-19.68518 -0.45568,-1.73156 -0.82021,-34.72246 -0.82021,-73.36372 l -0.0911,-70.174 25.33553,-0.45567 c 28.16074,-0.54681 28.88983,-0.72908 35.81608,-7.0174 2.18725,-1.91384 4.9213,-5.55924 6.10606,-8.29329 1.82269,-4.19222 2.0961,-6.19718 2.0961,-16.13091 v -11.39188 h 6.83513 6.83513 v -17.6802 c 0,-9.75145 0.36455,-18.77383 0.82021,-19.95858 0.54682,-1.27589 1.82271,-2.64292 3.00746,-3.00745 2.27838,-0.82022 90.49712,-0.54682 92.77549,0.18226 0.72908,0.27341 4.37449,3.82768 7.92875,7.92875 3.6454,4.10108 9.02237,10.02486 11.84756,13.12346 l 5.28584,5.65036 7.2908,0.18227 7.29081,0.18228 0.63794,-4.19222 c 0.2734,-2.27837 0.82022,-4.64788 1.18476,-5.10356 0.82021,-1.45816 27.06711,-1.36703 28.52527,0.0911 0.63795,0.63795 1.09362,2.82518 1.09362,5.01242 0,2.46065 0.45568,4.10108 1.18475,4.28335 0.54682,0.18227 3.18973,0.82021 5.65038,1.36703 7.47307,1.8227 15.67523,9.84259 17.86248,17.6802 1.54928,5.37697 2.00496,172.97434 0.5468,180.08288 -1.18475,6.10605 -5.1947,12.21209 -10.48053,16.22203 -7.92875,6.01492 -1.36703,5.74152 -127.68022,5.65038 -89.40349,0 -115.28584,-0.27341 -118.11103,-1.18475 z m 139.0721,-41.19305 c 12.7589,-4.00995 20.77879,-9.11351 31.44159,-20.04972 20.41426,-20.96106 25.24441,-52.58492 12.02983,-79.10523 -7.0174,-13.94367 -17.58907,-24.69759 -31.62386,-31.89727 -9.75146,-5.01242 -15.67523,-6.74399 -26.33804,-7.74648 -21.69014,-2.00497 -41.92213,5.83264 -57.23281,22.05468 -15.12843,16.03978 -21.59902,35.26928 -19.32064,57.14169 2.64291,24.60646 19.77631,46.93456 43.74483,57.05055 15.03728,6.37945 32.26181,7.2908 47.2991,2.55178 z m 7.56421,-176.80201 c 2.0961,-2.00498 1.8227,-5.10357 -1.00249,-11.30076 -1.5493,-3.6454 -3.09859,-5.65037 -4.28335,-5.92377 -3.82767,-0.91136 -43.83596,-1.09363 -45.84093,-0.18227 -1.27589,0.5468 -2.82519,3.00745 -4.28335,6.65286 -2.73405,6.74399 -2.91632,8.8401 -0.91135,10.75394 1.18476,1.27589 5.01243,1.45815 28.16073,1.45815 23.14831,0 26.97598,-0.18226 28.16074,-1.45815 z"
       id="path2"
       style="stroke-width:0.911351" />
    <path
       d="m 309.14483,317.55177 c -9.75145,-2.27838 -22.32809,-12.2121 -27.34052,-21.69015 -8.8401,-16.49544 -5.92377,-37.00083 7.29081,-50.67109 22.87489,-23.60398 61.97184,-14.39934 72.36123,16.95113 2.09611,6.56172 2.46065,18.86494 0.72908,24.87986 -4.00994,13.76139 -16.22203,26.06463 -29.80116,30.07457 -5.37697,1.5493 -17.4068,1.82271 -23.23944,0.45568 z"
       id="path4"
       style="stroke-width:0.911351" />
    <path
       d="m 129.80545,209.69281 c -15.94627,-0.85865 -18.39954,-1.96262 -20.73015,-9.81309 -0.85864,-2.94393 -1.10397,-22.69277 -0.85864,-56.91591 L 108.58465,90.341125 113.1232,86.170562 117.78442,82 h 44.52689 44.64955 l 14.22898,14.351642 14.35164,14.474308 v 44.52688 c 0,49.31078 -0.12266,50.41475 -7.72781,53.48133 -4.17057,1.7173 -68.93694,2.20795 -98.00822,0.85865 z m 93.22434,-11.40772 c 1.10398,-1.10397 1.47197,-12.14369 1.47197,-41.82829 v -40.47898 l -10.67174,-10.91707 -10.79439,-10.794389 -41.09231,-0.367992 -41.09231,-0.245327 -0.36799,52.377358 -0.24532,52.50002 49.31076,0.368 c 27.23132,0.12266 50.04675,0.36799 50.78273,0.61331 0.61332,0.12267 1.83995,-0.36799 2.6986,-1.22664 z"
       id="path6"
       style="stroke-width:1.22663" />
    <path
       d="m 163.78327,186.75471 c -8.21846,-4.29322 -11.65304,-9.69042 -11.65304,-18.39953 0,-14.35164 14.22897,-24.04207 27.72197,-18.8902 7.85048,3.0666 13.73833,13.98365 12.1437,22.5701 -2.45327,12.87968 -17.17291,20.48482 -28.21263,14.71963 z"
       id="path8"
       style="stroke-width:1.22663" />
    <path
       d="m 131.64541,130.20679 c -1.10397,-0.36799 -1.59463,-4.29323 -1.59463,-13.37032 v -12.75702 h 31.27921 31.27922 v 12.87968 c 0,9.4451 -0.36799,12.87967 -1.47196,13.00234 -9.32243,0.49065 -58.38787,0.73598 -59.49184,0.24532 z"
       id="path10"
       style="stroke-width:1.22663" />
  </g>
</svg>
