<?xml version="1.0" encoding="UTF-8" standalone="no"?>
<!-- Created with Inkscape (http://www.inkscape.org/) -->

<svg
   width="18.141853mm"
   height="18.141851mm"
   viewBox="0 0 64.282157 64.282151"
   id="svg2"
   version="1.1"
   inkscape:version="1.1.2 (0a00cf5339, 2022-02-04)"
   sodipodi:docname="RasterImage3D.svg"
   xmlns:inkscape="http://www.inkscape.org/namespaces/inkscape"
   xmlns:sodipodi="http://sodipodi.sourceforge.net/DTD/sodipodi-0.dtd"
   xmlns="http://www.w3.org/2000/svg"
   xmlns:svg="http://www.w3.org/2000/svg"
   xmlns:rdf="http://www.w3.org/1999/02/22-rdf-syntax-ns#"
   xmlns:cc="http://creativecommons.org/ns#"
   xmlns:dc="http://purl.org/dc/elements/1.1/">
  <sodipodi:namedview
     id="base"
     pagecolor="#ffffff"
     bordercolor="#666666"
     borderopacity="1.0"
     inkscape:pageopacity="0.0"
     inkscape:pageshadow="2"
     inkscape:zoom="5.6568542"
     inkscape:cx="43.310291"
     inkscape:cy="51.530407"
     inkscape:document-units="px"
     inkscape:current-layer="g4458"
     showgrid="false"
     inkscape:window-width="1850"
     inkscape:window-height="1016"
     inkscape:window-x="0"
     inkscape:window-y="0"
     inkscape:window-maximized="1"
     fit-margin-top="0"
     fit-margin-left="0"
     fit-margin-right="0"
     fit-margin-bottom="0"
     inkscape:pagecheckerboard="0" />
  <defs
     id="defs4" />
  <metadata
     id="metadata7">
    <rdf:RDF>
      <cc:Work
         rdf:about="">
        <dc:format>image/svg+xml</dc:format>
        <dc:type
           rdf:resource="http://purl.org/dc/dcmitype/StillImage" />
      </cc:Work>
    </rdf:RDF>
  </metadata>
  <g
     id="layer1"
     inkscape:groupmode="layer"
     inkscape:label="Calque 1"
     transform="translate(-50.073196,-1105.2926)">
    <g
       transform="matrix(0.95788262,-0.56437145,0.40384435,0.80602963,-458.01774,265.47156)"
       id="g4458">
      <path
         id="path102889"
         style="fill:#000000;fill-opacity:1;stroke:none;stroke-width:0.9375;stroke-linecap:round;stroke-linejoin:round;stroke-miterlimit:11;stroke-dasharray:none;stroke-opacity:1"
         d="m 73.085256,1101.114 -9.20333,21.8295 16.7136,-5.8735 4.19326,19.081 13.33046,-4.3236 6.171324,21.0226 9.72835,-23.0748 z" />
      <path
         id="path102891"
         style="fill:none;stroke:#000000;stroke-width:0.9375px;stroke-linecap:butt;stroke-linejoin:miter;stroke-opacity:1"
         d="m 63.882126,1122.9444 16.71369,-5.8731 4.19186,19.0806" />
      <path
         id="path102893"
         style="fill:none;stroke:#000000;stroke-width:0.9375px;stroke-linecap:butt;stroke-linejoin:miter;stroke-opacity:1"
         d="m 104.29066,1152.8492 -6.171454,-21.0224 -18.43389,5.9801" />
      <rect
         style="fill:none;stroke:#000000;stroke-width:4.26672;stroke-linecap:round;stroke-linejoin:round;stroke-miterlimit:11;stroke-dasharray:none;stroke-opacity:1"
         id="rect102895"
         width="49.97073"
         height="52.792446"
         x="506.43658"
         y="879.73871"
         transform="matrix(0.81915996,0.57356514,-0.38848623,0.92145453,0,0)" />
      <g
         id="g102901"
         transform="translate(-57.085874,-40.566406)">
        <g
           aria-label="3"
           transform="matrix(0.80602963,0.56437145,-0.40384435,0.95788262,0,0)"
           id="text102899"
           style="font-weight:bold;font-size:25px;line-height:1.25;font-family:'Bitstream Vera Serif';-inkscape-font-specification:'Bitstream Vera Serif Bold';stroke-width:0.9375">
          <path
             d="m 593.08411,874.24579 q 1.61132,-0.42725 3.125,-0.63477 1.51367,-0.21972 2.9541,-0.21972 3.2959,0 5.05371,1.18408 1.77002,1.17187 1.77002,3.36914 0,1.64795 -1.01319,2.67334 -1.01318,1.02539 -2.9663,1.37939 2.38037,0.37842 3.55224,1.62354 1.17188,1.24512 1.17188,3.40576 0,2.55127 -2.02637,3.91846 -2.01416,1.35498 -5.84717,1.35498 -1.44043,0 -2.97851,-0.24414 -1.52588,-0.24414 -3.19825,-0.73242 v -4.00391 h 1.47706 q 0.13427,1.7334 1.08642,2.64892 0.95215,0.90333 2.63672,0.90333 1.85547,0 2.86865,-1.0254 1.01319,-1.03759 1.01319,-2.92968 0,-1.97754 -1.06202,-3.05176 -1.0498,-1.07422 -2.99072,-1.07422 h -0.80566 v -1.46484 h 0.63476 q 1.79444,0 2.69776,-0.83008 0.90332,-0.83008 0.90332,-2.47803 0,-1.55029 -0.8545,-2.36816 -0.84228,-0.83008 -2.42919,-0.83008 -1.44043,0 -2.28272,0.79346 -0.84228,0.78125 -1.01318,2.28271 h -1.47705 z"
             id="path283463" />
        </g>
      </g>
      <g
         aria-label="D"
         transform="matrix(0.80602963,0.56437145,-0.40384435,0.95788262,0,0)"
         id="text102905"
         style="font-size:25px;line-height:1.25;font-family:Roboto;-inkscape-font-specification:Roboto;stroke-width:0.9375">
        <path
           d="m 548.01447,889.62634 h 1.69677 q 2.85645,0 4.17481,-1.83105 1.33056,-1.83106 1.33056,-5.82276 0,-3.96728 -1.31836,-5.78613 -1.31835,-1.83105 -4.18701,-1.83105 h -1.69677 z m -7.03125,1.47705 v -1.47705 h 2.33154 v -15.27099 h -2.33154 v -1.47705 h 9.35058 q 4.90723,0 7.50733,2.34375 2.60009,2.34375 2.60009,6.75048 0,4.43116 -2.6123,6.78711 -2.6001,2.34375 -7.49512,2.34375 z"
           style="font-weight:bold;font-family:'Bitstream Vera Serif';-inkscape-font-specification:'Bitstream Vera Serif Bold'"
           id="path283466" />
      </g>
    </g>
  </g>
</svg>
