<?xml version="1.0" encoding="UTF-8" standalone="no"?>
<!-- Created with Inkscape (http://www.inkscape.org/) -->

<svg
   width="18.141853mm"
   height="18.141851mm"
   viewBox="0 0 64.282157 64.282151"
   id="svg2"
   version="1.1"
   inkscape:version="1.1.2 (0a00cf5339, 2022-02-04)"
   sodipodi:docname="RasterImage2D.svg"
   xmlns:inkscape="http://www.inkscape.org/namespaces/inkscape"
   xmlns:sodipodi="http://sodipodi.sourceforge.net/DTD/sodipodi-0.dtd"
   xmlns="http://www.w3.org/2000/svg"
   xmlns:svg="http://www.w3.org/2000/svg"
   xmlns:rdf="http://www.w3.org/1999/02/22-rdf-syntax-ns#"
   xmlns:cc="http://creativecommons.org/ns#"
   xmlns:dc="http://purl.org/dc/elements/1.1/">
  <sodipodi:namedview
     id="base"
     pagecolor="#ffffff"
     bordercolor="#666666"
     borderopacity="1.0"
     inkscape:pageopacity="0.0"
     inkscape:pageshadow="2"
     inkscape:zoom="5.6568542"
     inkscape:cx="36.592776"
     inkscape:cy="62.137009"
     inkscape:document-units="px"
     inkscape:current-layer="g4458"
     showgrid="false"
     inkscape:window-width="1850"
     inkscape:window-height="1016"
     inkscape:window-x="0"
     inkscape:window-y="0"
     inkscape:window-maximized="1"
     fit-margin-top="0"
     fit-margin-left="0"
     fit-margin-right="0"
     fit-margin-bottom="0"
     inkscape:pagecheckerboard="0" />
  <defs
     id="defs4" />
  <metadata
     id="metadata7">
    <rdf:RDF>
      <cc:Work
         rdf:about="">
        <dc:format>image/svg+xml</dc:format>
        <dc:type
           rdf:resource="http://purl.org/dc/dcmitype/StillImage" />
        <dc:title />
      </cc:Work>
    </rdf:RDF>
  </metadata>
  <g
     id="layer1"
     inkscape:groupmode="layer"
     inkscape:label="Calque 1"
     transform="translate(-50.073196,-1105.2926)">
    <g
       transform="matrix(0.95788262,-0.56437145,0.40384435,0.80602963,-458.01774,265.47156)"
       id="g4458">
      <path
         id="path1985"
         style="fill:#000000;fill-opacity:1;stroke:none;stroke-width:0.9375;stroke-linecap:round;stroke-linejoin:round;stroke-miterlimit:11;stroke-dasharray:none;stroke-opacity:1"
         d="m 73.085216,1101.1134 -9.203333,21.8294 16.713597,-5.8734 4.193264,19.081 13.330462,-4.3236 6.171314,21.0226 9.72835,-23.0748 z" />
      <path
         id="path1705"
         style="fill:none;stroke:#000000;stroke-width:0.9375px;stroke-linecap:butt;stroke-linejoin:miter;stroke-opacity:1"
         d="m 63.882088,1122.9438 16.71369,-5.8731 4.191858,19.0806" />
      <path
         id="path2216"
         style="fill:none;stroke:#000000;stroke-width:0.9375px;stroke-linecap:butt;stroke-linejoin:miter;stroke-opacity:1"
         d="m 104.29061,1152.8486 -6.17145,-21.0224 -18.433881,5.9801" />
      <rect
         style="fill:none;stroke:#000000;stroke-width:4.26672;stroke-linecap:round;stroke-linejoin:round;stroke-miterlimit:11;stroke-dasharray:none;stroke-opacity:1"
         id="rect1973"
         width="49.97073"
         height="52.792446"
         x="506.43561"
         y="879.73822"
         transform="matrix(0.81915996,0.57356514,-0.38848623,0.92145453,0,0)" />
      <g
         id="g44057"
         transform="translate(-57.524973,-40.71295)">
        <g
           aria-label="2"
           transform="matrix(0.80602963,0.56437145,-0.40384435,0.95788262,0,0)"
           id="text11645"
           style="font-weight:bold;font-size:25px;line-height:1.25;font-family:'Bitstream Vera Serif';-inkscape-font-specification:'Bitstream Vera Serif Bold';stroke-width:0.9375">
          <path
             d="m 594.23157,878.22528 h -1.46485 v -3.93066 q 1.48926,-0.45166 2.9419,-0.67139 1.46484,-0.23193 2.9541,-0.23193 3.479,0 5.41992,1.42822 1.95313,1.41601 1.95313,3.95508 0,1.80664 -1.07422,3.24707 -1.07422,1.42822 -4.10156,3.39355 l -5.07813,3.33252 h 8.63037 v -2.14844 h 1.67236 v 5.34668 h -13.47656 v -2.97851 l 2.69776,-1.86768 q 3.45459,-2.38037 4.60205,-4.05273 1.14746,-1.67237 1.14746,-3.90625 0,-2.11182 -0.87891,-3.21045 -0.8667,-1.11084 -2.53906,-1.11084 -1.44043,0 -2.30713,0.87891 -0.8667,0.86669 -1.09863,2.52685 z"
             id="path832" />
        </g>
      </g>
      <g
         aria-label="D"
         transform="matrix(0.80602963,0.56437145,-0.40384435,0.95788262,0,0)"
         id="text40173"
         style="font-size:25px;line-height:1.25;font-family:Roboto;-inkscape-font-specification:Roboto;stroke-width:0.9375">
        <path
           d="m 547.53467,889.75598 h 1.69678 q 2.85644,0 4.1748,-1.83105 1.33057,-1.83106 1.33057,-5.82276 0,-3.96728 -1.31836,-5.78613 -1.31836,-1.83105 -4.18701,-1.83105 h -1.69678 z m -7.03125,1.47705 v -1.47705 h 2.33154 v -15.27099 h -2.33154 v -1.47706 h 9.35058 q 4.90723,0 7.50733,2.34375 2.6001,2.34375 2.6001,6.75049 0,4.43116 -2.61231,6.78711 -2.6001,2.34375 -7.49512,2.34375 z"
           style="font-weight:bold;font-family:'Bitstream Vera Serif';-inkscape-font-specification:'Bitstream Vera Serif Bold'"
           id="path835" />
      </g>
    </g>
  </g>
</svg>
